# xmcd
#
# Track frame offsets: 
#        150
#        18235
#        32527
#        57333
#        65568
#        110617
#        162313
#        225902
#        252846
#        275918
#        302491
#        324916
#        338382
#
# Disc length: 4784 seconds
#
# Revision: 0
# Processed by: cddbd v1.5.2PL0 Copyright (c) Steve Scherf et al.
# Submitted via: ExactAudioCopy v0.99pb1
#
DISCID=a312ae0d
DTITLE=Chris Duarte Group - Tape Trips Volume 3 CD1
DYEAR=2007
DGENRE=Blues
TTITLE0=B flat Blues
TTITLE1=The Pop Song
TTITLE2=Never Will Change
TTITLE3=Ain't No Tellin'
TTITLE4=Boogie-Stop Shuffle
TTITLE5=Memorial Field
TTITLE6=Screenwriter's Blues
TTITLE7=People Say
TTITLE8=Out In The Rain
TTITLE9=Angel
TTITLE10=Take It To The Lord
TTITLE11=Star-Spangled Banner
TTITLE12=Like Eric
EXTD=
EXTT0=
EXTT1=
EXTT2=
EXTT3=
EXTT4=
EXTT5=
EXTT6=
EXTT7=
EXTT8=
EXTT9=
EXTT10=
EXTT11=
EXTT12=
PLAYORDER=
